<svg width="25" height="25" viewBox="0 0 25 25" fill="none" xmlns="http://www.w3.org/2000/svg">
<path d="M12.4632 21.563C10.5985 21.563 8.77567 21.0101 7.22524 19.9741C5.67482 18.9382 4.46641 17.4657 3.75282 15.743C3.03924 14.0202 2.85254 12.1246 3.21632 10.2957C3.5801 8.46687 4.47803 6.78696 5.79656 5.46843C7.11509 4.1499 8.795 3.25197 10.6238 2.88819C12.4527 2.52441 14.3484 2.71112 16.0711 3.4247C17.7938 4.13828 19.2663 5.34669 20.3023 6.89712C21.3382 8.44755 21.8912 10.2704 21.8912 12.135C21.8912 14.6355 20.8979 17.0335 19.1298 18.8016C17.3617 20.5697 14.9636 21.563 12.4632 21.563ZM12.4632 10.802L9.79716 8.13504L8.46316 9.46904L11.1302 12.135L8.46316 14.801L9.79716 16.135L12.4632 13.468L15.1292 16.135L16.4632 14.801L13.7962 12.135L16.4632 9.46904L15.1292 8.13504L12.4632 10.802Z" fill="white"/>
</svg>
