<svg width="27" height="24" viewBox="0 0 27 24" fill="none" xmlns="http://www.w3.org/2000/svg">
<path d="M16.411 23.6309H1.094C0.806224 23.6327 0.529451 23.5204 0.324371 23.3185C0.119291 23.1166 0.00264145 22.8416 0 22.5539L0 1.70888C0.00264145 1.42101 0.119259 1.14593 0.32431 0.943881C0.529361 0.741829 0.806131 0.629277 1.094 0.630876H10.211V6.74088C10.2136 7.02865 10.3303 7.30363 10.5354 7.50552C10.7405 7.70741 11.0172 7.81974 11.305 7.81788H17.505V9.28088C15.9164 9.40105 14.4318 10.1169 13.3486 11.2852C12.2654 12.4534 11.6636 13.9877 11.6636 15.5809C11.6636 17.174 12.2654 18.7083 13.3486 19.8766C14.4318 21.0448 15.9164 21.7607 17.505 21.8809V22.5539C17.5024 22.8416 17.3857 23.1166 17.1806 23.3185C16.9755 23.5204 16.6988 23.6327 16.411 23.6309ZM17.505 6.38188H11.67V0.630876H11.948C12.2377 0.629711 12.5162 0.742907 12.723 0.945876L17.186 5.34588C17.2871 5.44494 17.3674 5.56319 17.4222 5.6937C17.4769 5.82421 17.5051 5.96434 17.505 6.10588V6.37888V6.38188Z" fill="white"/>
<path d="M26.0335 21.6453L23.3985 19.0093C23.3395 18.9505 23.2695 18.9039 23.1924 18.8721C23.1154 18.8404 23.0328 18.8241 22.9495 18.8243H22.5185C23.2735 17.8599 23.6831 16.6701 23.6815 15.4453C23.6815 14.723 23.5392 14.0078 23.2628 13.3406C22.9864 12.6733 22.5813 12.0669 22.0706 11.5562C21.5599 11.0455 20.9535 10.6404 20.2863 10.364C19.619 10.0876 18.9038 9.94531 18.1815 9.94531C16.7238 9.9469 15.3264 10.5271 14.2963 11.5583C13.2661 12.5896 12.6875 13.9877 12.6875 15.4453C12.6875 16.904 13.267 18.3029 14.2984 19.3344C15.3299 20.3659 16.7288 20.9453 18.1875 20.9453C19.413 20.9452 20.6029 20.5335 21.5665 19.7763V20.2073C21.5663 20.2906 21.5826 20.3732 21.6143 20.4502C21.6461 20.5273 21.6927 20.5973 21.7515 20.6563L24.3875 23.2913C24.4463 23.3509 24.5164 23.3983 24.5936 23.4306C24.6709 23.4629 24.7538 23.4796 24.8375 23.4796C24.9212 23.4796 25.0041 23.4629 25.0814 23.4306C25.1586 23.3983 25.2287 23.3509 25.2875 23.2913L26.0355 22.5433C26.1538 22.4237 26.22 22.2621 26.2197 22.0939C26.2193 21.9257 26.1524 21.7644 26.0335 21.6453ZM18.1875 18.8243C17.7432 18.825 17.3032 18.7381 16.8926 18.5686C16.4819 18.3991 16.1087 18.1503 15.7942 17.8365C15.4798 17.5227 15.2303 17.15 15.0599 16.7397C14.8896 16.3294 14.8018 15.8896 14.8015 15.4453C14.8008 15.0005 14.888 14.5599 15.0579 14.1488C15.2278 13.7377 15.4772 13.3641 15.7918 13.0496C16.1063 12.735 16.4798 12.4856 16.891 12.3157C17.3021 12.1458 17.7427 12.0587 18.1875 12.0593C18.6318 12.0596 19.0716 12.1474 19.4819 12.3177C19.8922 12.4881 20.2649 12.7376 20.5787 13.0521C20.8925 13.3665 21.1413 13.7397 21.3108 14.1504C21.4803 14.561 21.5672 15.0011 21.5665 15.4453C21.566 16.3413 21.2098 17.2005 20.5762 17.834C19.9427 18.4676 19.0835 18.8238 18.1875 18.8243Z" fill="white"/>
</svg>
