<svg width="31" height="30" viewBox="0 0 31 30" fill="none" xmlns="http://www.w3.org/2000/svg">
<path d="M20.0969 4.55078L24.0629 11.3508H28.2909V13.7968H26.8499L25.9149 24.9048C25.8876 25.2118 25.7461 25.4973 25.5183 25.7049C25.2905 25.9125 24.9931 26.027 24.6849 26.0258H7.19294C6.88476 26.027 6.58735 25.9125 6.35957 25.7049C6.13179 25.4973 5.99025 25.2118 5.96294 24.9048L5.02594 13.7988H3.58594V11.3528H7.81294L11.7809 4.55278L13.9199 5.77578L10.6669 11.3528H21.2089L17.9569 5.77378L20.0959 4.55078H20.0969ZM17.1739 16.2448H14.7029V21.1368H17.1739V16.2448ZM12.2329 16.2448H9.76194V21.1368H12.2329V16.2448ZM22.1149 16.2448H19.6439V21.1368H22.1149V16.2448Z" fill="white"/>
</svg>
