<svg width="24" height="25" viewBox="0 0 24 25" fill="none" xmlns="http://www.w3.org/2000/svg">
<path d="M19.128 24.7012H1.495C1.09804 24.6998 0.717795 24.5412 0.437571 24.2601C0.157347 23.9789 -2.20532e-06 23.5981 0 23.2012L0 18.9512C0.00027097 18.7855 0.0153307 18.6202 0.045 18.4572L1.29 10.9572C1.34595 10.6066 1.52514 10.2875 1.79534 10.0573C2.06553 9.82706 2.40901 9.70078 2.764 9.70117H6.728V6.70117H2.249C2.04973 6.70064 1.85882 6.62104 1.71819 6.47986C1.57757 6.33867 1.49873 6.14744 1.499 5.94817V1.45417C1.49873 1.2549 1.57757 1.06367 1.71819 0.922487C1.85882 0.781301 2.04973 0.701702 2.249 0.701172L14.2 0.701172C14.3993 0.701702 14.5902 0.781301 14.7308 0.922487C14.8714 1.06367 14.9503 1.2549 14.95 1.45417V5.95417C14.9503 6.15344 14.8714 6.34467 14.7308 6.48586C14.5902 6.62704 14.3993 6.70664 14.2 6.70717H9.717V9.70717H21.149C21.5033 9.70594 21.8464 9.83116 22.1166 10.0603C22.3868 10.2894 22.5663 10.6075 22.623 10.9572L23.323 15.1322C22.2669 15.2418 21.2586 15.6292 20.4009 16.2551C19.5432 16.8811 18.8667 17.7231 18.4402 18.6955C18.0137 19.6679 17.8525 20.7359 17.973 21.7908C18.0934 22.8458 18.4913 23.85 19.126 24.7012H19.128ZM7.853 20.9572C7.7536 20.9585 7.65868 20.9987 7.58857 21.0692C7.51847 21.1396 7.47878 21.2348 7.478 21.3342V22.0832C7.478 22.1827 7.51748 22.2782 7.58777 22.3487C7.65807 22.4192 7.75345 22.4589 7.853 22.4592H16.07C16.1695 22.4589 16.2649 22.4192 16.3352 22.3487C16.4055 22.2782 16.445 22.1827 16.445 22.0832V21.3342C16.4442 21.2348 16.4045 21.1396 16.3344 21.0692C16.2643 20.9987 16.1694 20.9585 16.07 20.9572H7.853ZM16.071 15.3312C15.8723 15.3312 15.6816 15.4101 15.541 15.5505C15.4004 15.6909 15.3213 15.8814 15.321 16.0802V16.8322C15.3213 17.0309 15.4004 17.2214 15.541 17.3619C15.6816 17.5023 15.8723 17.5812 16.071 17.5812H16.816C17.0147 17.5812 17.2054 17.5023 17.346 17.3619C17.4866 17.2214 17.5657 17.0309 17.566 16.8322V16.0802C17.5657 15.8814 17.4866 15.6909 17.346 15.5505C17.2054 15.4101 17.0147 15.3312 16.816 15.3312H16.071ZM11.587 15.3312C11.389 15.332 11.1993 15.4113 11.0597 15.5517C10.92 15.6921 10.8417 15.8821 10.842 16.0802V16.8322C10.8417 17.0302 10.92 17.2203 11.0597 17.3607C11.1993 17.5011 11.389 17.5804 11.587 17.5812H12.332C12.5307 17.5812 12.7214 17.5023 12.862 17.3619C13.0026 17.2214 13.0817 17.0309 13.082 16.8322V16.0802C13.0817 15.8814 13.0026 15.6909 12.862 15.5505C12.7214 15.4101 12.5307 15.3312 12.332 15.3312H11.587ZM7.103 15.3312C6.90497 15.332 6.71533 15.4113 6.57567 15.5517C6.43601 15.6921 6.35773 15.8821 6.358 16.0802V16.8322C6.35773 17.0302 6.43601 17.2203 6.57567 17.3607C6.71533 17.5011 6.90497 17.5804 7.103 17.5812H7.853C8.05103 17.5804 8.24067 17.5011 8.38033 17.3607C8.51999 17.2203 8.59827 17.0302 8.598 16.8322V16.0802C8.59827 15.8821 8.51999 15.6921 8.38033 15.5517C8.24067 15.4113 8.05103 15.332 7.853 15.3312H7.103ZM18.31 11.5772C18.1114 11.5785 17.9215 11.6585 17.7818 11.7997C17.6422 11.9408 17.5642 12.1316 17.565 12.3302V13.0772C17.5642 13.2757 17.6422 13.4665 17.7818 13.6077C17.9215 13.7488 18.1114 13.8288 18.31 13.8302H19.06C19.2586 13.8288 19.4485 13.7488 19.5882 13.6077C19.7278 13.4665 19.8058 13.2757 19.805 13.0772V12.3302C19.8058 12.1316 19.7278 11.9408 19.5882 11.7997C19.4485 11.6585 19.2586 11.5785 19.06 11.5772H18.31ZM13.826 11.5772C13.6274 11.5785 13.4375 11.6585 13.2978 11.7997C13.1582 11.9408 13.0802 12.1316 13.081 12.3302V13.0772C13.0802 13.2757 13.1582 13.4665 13.2978 13.6077C13.4375 13.7488 13.6274 13.8288 13.826 13.8302H14.576C14.7746 13.8288 14.9645 13.7488 15.1042 13.6077C15.2438 13.4665 15.3218 13.2757 15.321 13.0772V12.3302C15.3218 12.1316 15.2438 11.9408 15.1042 11.7997C14.9645 11.6585 14.7746 11.5785 14.576 11.5772H13.826ZM9.347 11.5772C9.14773 11.5777 8.95682 11.6573 8.81619 11.7985C8.67557 11.9397 8.59673 12.1309 8.597 12.3302V13.0772C8.59673 13.2764 8.67557 13.4677 8.81619 13.6089C8.95682 13.75 9.14773 13.8296 9.347 13.8302H10.092C10.2913 13.8296 10.4822 13.75 10.6228 13.6089C10.7634 13.4677 10.8423 13.2764 10.842 13.0772V12.3302C10.8397 12.1317 10.76 11.942 10.6199 11.8013C10.4799 11.6607 10.2905 11.5803 10.092 11.5772H9.347ZM4.863 11.5772C4.66446 11.58 4.4749 11.6604 4.33478 11.8011C4.19465 11.9417 4.11507 12.1316 4.113 12.3302V13.0772C4.11273 13.2764 4.19157 13.4677 4.33219 13.6089C4.47282 13.75 4.66373 13.8296 4.863 13.8302H5.608C5.80727 13.8296 5.99818 13.75 6.13881 13.6089C6.27943 13.4677 6.35827 13.2764 6.358 13.0772V12.3302C6.35593 12.1316 6.27635 11.9417 6.13622 11.8011C5.9961 11.6604 5.80654 11.58 5.608 11.5772H4.863ZM3.744 2.95417V4.45417H12.706V2.95417H3.744Z" fill="white"/>
</svg>
