<svg width="25" height="24" viewBox="0 0 25 24" fill="none" xmlns="http://www.w3.org/2000/svg">
<path d="M16.261 23.2832H1.084C0.797554 23.2837 0.522585 23.1707 0.319381 22.9688C0.116178 22.7669 0.0013232 22.4927 0 22.2062L0 1.36121C0.00132277 1.07467 0.116145 0.80034 0.31932 0.59829C0.522495 0.396239 0.797462 0.282941 1.084 0.283209H10.117V6.39321C10.1183 6.67948 10.233 6.95356 10.436 7.15542C10.639 7.35728 10.9137 7.47048 11.2 7.47021H17.343V8.93321C15.7651 9.06816 14.2952 9.79034 13.2242 10.9569C12.1531 12.1235 11.5588 13.6495 11.5588 15.2332C11.5588 16.8169 12.1531 18.3429 13.2242 19.5095C14.2952 20.6761 15.7651 21.3983 17.343 21.5332V22.2062C17.3417 22.4923 17.2271 22.7662 17.0243 22.9681C16.8216 23.1699 16.5471 23.2832 16.261 23.2832ZM17.345 6.03421H11.563V0.283209H11.839C12.1266 0.282259 12.4029 0.395561 12.607 0.598209L17.029 4.99821C17.1293 5.09769 17.2089 5.21609 17.2632 5.34654C17.3174 5.477 17.3452 5.61692 17.345 5.75821V6.03121V6.03421Z" fill="white"/>
<path d="M18.5348 20.714C17.4092 20.714 16.3089 20.3803 15.373 19.7549C14.4371 19.1296 13.7077 18.2408 13.277 17.2009C12.8462 16.161 12.7335 15.0167 12.9531 13.9128C13.1727 12.8088 13.7147 11.7948 14.5106 10.9989C15.3065 10.203 16.3205 9.66097 17.4245 9.44138C18.5284 9.2218 19.6727 9.3345 20.7126 9.76524C21.7525 10.196 22.6413 10.9254 23.2666 11.8613C23.892 12.7972 24.2258 13.8975 24.2258 15.023C24.2234 16.5317 23.623 17.9778 22.5563 19.0445C21.4895 20.1113 20.0434 20.7117 18.5348 20.714ZM17.9658 16.733V17.869H19.1038V16.733H17.9658ZM17.9658 12.181V15.593H19.1038V12.179L17.9658 12.181Z" fill="white"/>
</svg>
