<svg width="27" height="23" viewBox="0 0 27 23" fill="none" xmlns="http://www.w3.org/2000/svg">
<path d="M12.4368 6.46152L14.8668 7.10151C14.9483 7.12333 15.021 7.17002 15.0748 7.23508C15.1286 7.30013 15.1607 7.38033 15.1668 7.46451C15.1606 7.56778 15.1146 7.66464 15.0386 7.73475C14.9625 7.80486 14.8622 7.84277 14.7588 7.84052H13.1608C12.9898 7.83412 12.821 7.80036 12.6608 7.74051C12.5499 7.68865 12.4265 7.66957 12.3051 7.68551C12.1838 7.70146 12.0695 7.75177 11.9758 7.83051L11.1248 8.61452C11.0866 8.64989 11.0531 8.68986 11.0248 8.73351C10.9794 8.81514 10.9537 8.90622 10.9498 8.99951C10.9545 9.08686 10.9793 9.17194 11.0223 9.2481C11.0653 9.32426 11.1254 9.38943 11.1978 9.43851C11.6768 9.70357 12.2005 9.87815 12.7428 9.95352V10.7455C12.7521 10.9432 12.8391 11.1293 12.9847 11.2633C13.1303 11.3974 13.323 11.4686 13.5208 11.4615H14.3008C14.4986 11.4686 14.6912 11.3974 14.8369 11.2633C14.9825 11.1293 15.0694 10.9432 15.0788 10.7455V9.95751C15.4239 9.93622 15.7612 9.84553 16.0704 9.69086C16.3797 9.53619 16.6546 9.32073 16.8787 9.05737C17.1027 8.794 17.2714 8.48814 17.3745 8.1581C17.4776 7.82805 17.5131 7.48059 17.4788 7.13651C17.3774 6.6148 17.1252 6.13431 16.7533 5.75461C16.3814 5.37492 15.9063 5.11271 15.3868 5.00051L12.9568 4.36051C12.8752 4.3387 12.8025 4.29201 12.7488 4.22695C12.695 4.1619 12.6629 4.0817 12.6568 3.99751C12.663 3.89424 12.7089 3.79739 12.785 3.72728C12.8611 3.65717 12.9614 3.61926 13.0648 3.62152H14.6588C14.8297 3.62791 14.9985 3.66167 15.1588 3.72151C15.2697 3.77338 15.3931 3.79246 15.5144 3.77652C15.6358 3.76057 15.7501 3.71026 15.8438 3.63151L16.6948 2.84752C16.7329 2.81323 16.7665 2.77426 16.7948 2.73151C16.8408 2.64938 16.8668 2.55757 16.8708 2.46352C16.8659 2.37636 16.841 2.29151 16.7979 2.21554C16.7549 2.13958 16.695 2.07456 16.6228 2.02551C16.1434 1.76041 15.6194 1.58583 15.0768 1.51052V0.717514C15.0679 0.519888 14.9815 0.333732 14.8362 0.199482C14.6909 0.0652319 14.4985 -0.00626797 14.3008 0.000514979H13.5228C13.3249 -0.00681303 13.1321 0.0643074 12.9864 0.1984C12.8407 0.332494 12.7539 0.518706 12.7448 0.716515V1.50051C12.3997 1.52195 12.0625 1.61273 11.7533 1.76744C11.4441 1.92215 11.1693 2.13762 10.9452 2.40095C10.7212 2.66428 10.5526 2.97009 10.4494 3.30007C10.3462 3.63006 10.3106 3.97746 10.3448 4.32152C10.4458 4.8438 10.6979 5.32496 11.0697 5.70536C11.4416 6.08576 11.9169 6.34867 12.4368 6.46152ZM25.6088 14.6905C25.3417 14.4661 25.0041 14.343 24.6553 14.343C24.3065 14.343 23.9688 14.4661 23.7018 14.6905L19.5648 18.0005C19.0439 18.3781 18.4244 18.596 17.7818 18.6275H12.4818C12.2918 18.6275 12.1095 18.552 11.9751 18.4177C11.8408 18.2833 11.7653 18.101 11.7653 17.911C11.7653 17.721 11.8408 17.5387 11.9751 17.4044C12.1095 17.27 12.2918 17.1945 12.4818 17.1945H15.9868C16.3352 17.2013 16.6748 17.0854 16.9465 16.8672C17.2181 16.6489 17.4044 16.3422 17.4728 16.0005C17.4855 15.9214 17.4925 15.8416 17.4938 15.7615V15.7565C17.4927 15.3771 17.3413 15.0135 17.0727 14.7455C16.8041 14.4774 16.4402 14.3268 16.0608 14.3265H8.90078C7.70272 14.3843 6.54798 14.7925 5.57978 15.5005L3.50078 17.1925H1.01678C0.826794 17.1928 0.644679 17.2684 0.510432 17.4029C0.376185 17.5373 0.300781 17.7195 0.300781 17.9095L0.300781 22.2095C0.301046 22.3993 0.376566 22.5813 0.510785 22.7155C0.645004 22.8497 0.826967 22.9252 1.01678 22.9255H16.9928C17.6367 22.8944 18.2577 22.6773 18.7808 22.3005L25.5518 16.8795C25.7106 16.7375 25.8399 16.5656 25.9322 16.3736C26.0245 16.1816 26.078 15.9732 26.0898 15.7605C26.0678 15.3562 25.8963 14.9745 25.6088 14.6895V14.6905Z" fill="white"/>
</svg>
