<svg width="31" height="28" viewBox="0 0 31 28" fill="none" xmlns="http://www.w3.org/2000/svg">
<path d="M17.9418 6.87305L21.6088 12.319H25.5178V14.277H24.1858L23.3208 23.171C23.2752 23.4349 23.1339 23.6726 22.9239 23.8387C22.7139 24.0048 22.45 24.0875 22.1828 24.071H6.01078C5.7436 24.0873 5.47981 24.0045 5.26986 23.8384C5.05991 23.6724 4.91854 23.4348 4.87278 23.171L4.00678 14.277H2.67578V12.319H6.58378L10.2528 6.87305L12.2308 7.85205L9.22278 12.319H18.9708L15.9628 7.85205L17.9408 6.87305H17.9418ZM15.2418 16.236H12.9548V20.153H15.2388L15.2418 16.236ZM10.6738 16.236H8.38678V20.153H10.6708L10.6738 16.236ZM19.8108 16.236H17.5238V20.153H19.8078L19.8108 16.236Z" fill="white"/>
<path d="M19.7706 5.84125L24.0186 0.53125L28.2656 5.84125H25.6106C25.6108 6.53852 25.4735 7.22899 25.2068 7.87322C24.94 8.51746 24.549 9.10283 24.056 9.59593C23.563 10.089 22.9777 10.4802 22.3335 10.747C21.6893 11.0139 20.9989 11.1512 20.3016 11.1512C20.1566 11.1512 20.0136 11.1462 19.8716 11.1342C20.6424 10.7286 21.2877 10.1201 21.7379 9.37443C22.188 8.62875 22.4258 7.77426 22.4256 6.90325V5.84125L19.7706 5.84125Z" fill="white"/>
</svg>
