<svg width="21" height="20" viewBox="0 0 21 20" fill="none" xmlns="http://www.w3.org/2000/svg">
<path d="M12.3585 3.64144L1.50146 14.4994L1.00146 18.9614C0.986432 19.1013 1.00307 19.2428 1.05015 19.3754C1.09722 19.508 1.17352 19.6283 1.27339 19.7274C1.37327 19.8265 1.49416 19.9019 1.62711 19.9479C1.76007 19.994 1.90168 20.0095 2.04146 19.9934L6.50146 19.4994L17.3595 8.64244L12.3585 3.64144ZM20.4525 2.89644L18.1015 0.549435C17.7496 0.197636 17.2725 0 16.775 0C16.2774 0 15.8003 0.197636 15.4485 0.549435L13.2395 2.75844L18.2395 7.75844L20.4485 5.54944C20.7999 5.19827 20.9976 4.72206 20.9984 4.22526C20.9991 3.72847 20.8028 3.25166 20.4525 2.89944V2.89644Z" fill="white"/>
</svg>
