<svg width="24" height="24" viewBox="0 0 24 24" fill="none" xmlns="http://www.w3.org/2000/svg">
<path d="M17.3076 7.9997H19.0766C19.3201 8.00856 19.55 8.11371 19.716 8.29203C19.8819 8.47035 19.9703 8.70726 19.9616 8.9507V20.3557C19.9703 20.5991 19.8819 20.8361 19.716 21.0144C19.55 21.1927 19.3201 21.2978 19.0766 21.3067H4.92464C4.68121 21.2978 4.45125 21.1927 4.28531 21.0144C4.11936 20.8361 4.031 20.5991 4.03964 20.3557V8.9457C4.031 8.70226 4.11936 8.46535 4.28531 8.28703C4.45125 8.10871 4.68121 8.00356 4.92464 7.9947H6.69364V7.0457C6.64393 5.58673 7.17459 4.16754 8.16935 3.09912C9.16411 2.03069 10.5418 1.40017 12.0006 1.3457C13.4594 1.40017 14.8372 2.03069 15.8319 3.09912C16.8267 4.16754 17.3574 5.58673 17.3076 7.0457V7.9997ZM15.5386 7.9997V7.0457C15.5719 6.07303 15.2181 5.12686 14.5549 4.41455C13.8917 3.70225 12.9732 3.28193 12.0006 3.2457C11.0281 3.28193 10.1095 3.70225 9.44635 4.41455C8.78316 5.12686 8.42941 6.07303 8.46264 7.0457V7.9967L15.5386 7.9997ZM11.1156 13.6997V15.5997H12.8846V13.6997H11.1156ZM7.57764 13.6997V15.5997H9.34664V13.6997H7.57764ZM14.6536 13.6997V15.5997H16.4226V13.6997H14.6536Z" fill="white"/>
</svg>
