<svg width="20" height="20" viewBox="0 0 20 20" fill="none" xmlns="http://www.w3.org/2000/svg">
<path d="M9.73681 13.6585L8.81981 10.9085C8.76239 10.7354 8.65185 10.5848 8.50391 10.4781C8.35598 10.3715 8.17818 10.3142 7.99581 10.3145H5.43481V13.7925H9.75781C9.75448 13.7473 9.74746 13.7025 9.73681 13.6585ZM4.85481 10.3145H2.29381C2.11145 10.3142 1.93365 10.3715 1.78571 10.4781C1.63778 10.5848 1.52724 10.7354 1.46981 10.9085L0.552813 13.6585C0.541827 13.7024 0.534469 13.7473 0.530813 13.7925H4.85481V10.3145ZM0.507812 14.3715V18.7145C0.508077 18.9448 0.599717 19.1657 0.762629 19.3286C0.925541 19.4915 1.14642 19.5832 1.37681 19.5835H8.90781C9.02231 19.584 9.13579 19.5619 9.24174 19.5185C9.34769 19.4751 9.44403 19.4111 9.52523 19.3304C9.60643 19.2497 9.67089 19.1537 9.71492 19.048C9.75895 18.9423 9.78168 18.829 9.78181 18.7145V14.3675L0.507812 14.3715Z" fill="white"/>
<path d="M19.7759 13.6585L18.8589 10.9085C18.8015 10.7354 18.6909 10.5848 18.543 10.4781C18.395 10.3715 18.2172 10.3142 18.0349 10.3145H15.4739V13.7925H19.7969C19.7935 13.7473 19.7865 13.7025 19.7759 13.6585ZM14.8939 10.3145H12.3329C12.1505 10.3142 11.9727 10.3715 11.8248 10.4781C11.6768 10.5848 11.5663 10.7354 11.5089 10.9085L10.5919 13.6585C10.5809 13.7024 10.5735 13.7473 10.5699 13.7925H14.8939V10.3145ZM10.5469 14.3715V18.7145C10.5471 18.9448 10.6388 19.1657 10.8017 19.3286C10.9646 19.4915 11.1855 19.5832 11.4159 19.5835H18.9469C19.0614 19.584 19.1749 19.5619 19.2808 19.5185C19.3868 19.4751 19.4831 19.4111 19.5643 19.3304C19.6455 19.2497 19.71 19.1537 19.754 19.048C19.798 18.9423 19.8207 18.829 19.8209 18.7145V14.3675L10.5469 14.3715Z" fill="white"/>
<path d="M14.4087 3.75416L13.4917 1.00416C13.4343 0.831066 13.3237 0.680491 13.1758 0.573848C13.0279 0.467204 12.8501 0.409925 12.6677 0.410157H10.1067V3.88816H14.4297C14.4264 3.84299 14.4193 3.79817 14.4087 3.75416ZM9.52669 0.410157H6.96569C6.78332 0.409925 6.60552 0.467204 6.45759 0.573848C6.30965 0.680491 6.19911 0.831066 6.14169 1.00416L5.22469 3.75416C5.2137 3.79815 5.20634 3.84296 5.20269 3.88816H9.52669V0.410157ZM5.17969 4.46716V8.81016C5.17995 9.04055 5.27159 9.26143 5.4345 9.42434C5.59742 9.58725 5.8183 9.67889 6.04869 9.67916H13.5797C13.6942 9.67968 13.8077 9.6576 13.9136 9.61418C14.0196 9.57076 14.1159 9.50684 14.1971 9.42611C14.2783 9.34538 14.3428 9.24941 14.3868 9.14371C14.4308 9.03801 14.4536 8.92466 14.4537 8.81016V4.46316L5.17969 4.46716Z" fill="white"/>
</svg>
