<svg width="23" height="18" viewBox="0 0 23 18" fill="none" xmlns="http://www.w3.org/2000/svg">
<path d="M0.309844 9.50966C0.111305 9.30832 0 9.03692 0 8.75416C0 8.47139 0.111305 8.2 0.309844 7.99866L7.77584 0.533657C7.92544 0.385198 8.11558 0.284272 8.32237 0.243564C8.52917 0.202856 8.74337 0.224183 8.93808 0.304865C9.13278 0.385547 9.29929 0.521982 9.41668 0.697023C9.53407 0.872065 9.5971 1.0779 9.59784 1.28866V5.55466H15.6418C15.7821 5.55439 15.921 5.58185 16.0506 5.63545C16.1801 5.68906 16.2979 5.76775 16.3969 5.867C16.496 5.96625 16.5745 6.08411 16.6278 6.21379C16.6812 6.34347 16.7084 6.48243 16.7078 6.62266V10.8887C16.7081 11.0288 16.6807 11.1676 16.6271 11.2971C16.5736 11.4267 16.495 11.5443 16.3959 11.6434C16.2967 11.7424 16.179 11.8209 16.0494 11.8743C15.9198 11.9278 15.781 11.9551 15.6408 11.9547H9.59984V16.2227C9.59957 16.4336 9.53682 16.6398 9.41951 16.8151C9.3022 16.9905 9.13559 17.1272 8.94069 17.2079C8.74579 17.2887 8.53134 17.3099 8.32439 17.2689C8.11744 17.228 7.92726 17.1266 7.77784 16.9777L0.309844 9.50966ZM13.8638 16.7537V14.9757C13.8644 14.8339 13.9211 14.6982 14.0216 14.5983C14.1221 14.4984 14.2581 14.4424 14.3998 14.4427H18.1298C18.3165 14.4429 18.5014 14.4064 18.6739 14.3351C18.8464 14.2639 19.0032 14.1593 19.1352 14.0275C19.2673 13.8956 19.3721 13.7389 19.4436 13.5665C19.515 13.3941 19.5518 13.2093 19.5518 13.0227V4.49066C19.5521 4.30384 19.5155 4.11881 19.4441 3.94617C19.3728 3.77353 19.268 3.61666 19.1359 3.48456C19.0038 3.35247 18.847 3.24773 18.6743 3.17636C18.5017 3.105 18.3167 3.06839 18.1298 3.06866H14.3998C14.2586 3.06813 14.1234 3.01181 14.0235 2.91196C13.9237 2.81212 13.8674 2.67686 13.8668 2.53566V0.758658C13.8666 0.616939 13.9226 0.480905 14.0225 0.380414C14.1224 0.279923 14.2581 0.223187 14.3998 0.222657H18.1298C18.6904 0.222263 19.2455 0.332308 19.7634 0.546506C20.2814 0.760704 20.7521 1.07486 21.1487 1.47102C21.5452 1.86718 21.8598 2.33758 22.0745 2.85536C22.2891 3.37314 22.3997 3.92814 22.3998 4.48866V13.0227C22.3995 13.583 22.2887 14.1378 22.0739 14.6553C21.8591 15.1729 21.5445 15.6431 21.1479 16.039C20.7514 16.435 20.2808 16.7489 19.763 16.963C19.2451 17.1771 18.6902 17.2871 18.1298 17.2867H14.3998C14.2581 17.2869 14.1221 17.2309 14.0216 17.131C13.9211 17.0311 13.8644 16.8954 13.8638 16.7537Z" fill="white"/>
</svg>
