<?xml version="1.0" standalone="no"?>
<!DOCTYPE svg PUBLIC "-//W3C//DTD SVG 20010904//EN"
 "http://www.w3.org/TR/2001/REC-SVG-20010904/DTD/svg10.dtd">
<svg version="1.0" xmlns="http://www.w3.org/2000/svg"
 width="700.000000pt" height="700.000000pt" viewBox="0 0 700.000000 700.000000"
 preserveAspectRatio="xMidYMid meet">
<metadata>
Created by potrace 1.11, written by Peter Selinger 2001-2013
</metadata>
<g transform="translate(0.000000,700.000000) scale(0.100000,-0.100000)"
fill="#000000" stroke="none">
<path d="M3402 6348 c-11 -18 -37 -64 -58 -103 -20 -38 -71 -131 -112 -205
-41 -74 -87 -157 -102 -185 -89 -164 -155 -284 -170 -310 -9 -16 -74 -136
-145 -265 -70 -129 -135 -246 -144 -260 -8 -14 -25 -43 -37 -65 -12 -22 -99
-175 -194 -340 -94 -165 -182 -318 -195 -340 -86 -154 -1117 -1958 -1135
-1988 -11 -18 -23 -39 -27 -47 -4 -8 -21 -40 -39 -70 -38 -66 -500 -875 -557
-975 -22 -38 -53 -95 -70 -125 -17 -30 -41 -73 -55 -94 -13 -22 -34 -58 -46
-80 -38 -70 -78 -141 -86 -151 -21 -29 -68 -125 -62 -126 31 -3 6663 -1 6666
2 3 2 -71 128 -163 279 -555 909 -684 1121 -769 1265 -142 239 -142 239 -148
258 -4 9 -10 17 -15 17 -5 0 -9 4 -9 10 0 5 -26 54 -59 108 -32 54 -128 217
-214 363 -85 145 -182 311 -217 369 -34 58 -72 123 -85 145 -12 22 -163 279
-335 570 -172 292 -320 544 -330 560 -9 17 -108 184 -219 373 -243 413 -553
941 -721 1227 -68 116 -124 211 -125 213 -2 2 -12 -12 -23 -30z m303 -3098
c126 -217 236 -410 247 -427 28 -51 49 -87 142 -247 47 -82 86 -151 86 -154 0
-3 6 -13 14 -21 7 -9 29 -45 49 -81 19 -36 69 -123 111 -195 41 -71 74 -131
72 -132 -2 -3 -1926 -10 -1926 -7 0 0 53 93 118 205 105 181 271 469 342 593
260 455 506 873 511 868 4 -4 109 -185 234 -402z"/>
</g>
</svg>
