<svg width="10" height="24" viewBox="0 0 10 24" fill="none" xmlns="http://www.w3.org/2000/svg">
<path d="M1.49041 19.9456C1.24535 19.9456 1.01032 20.0429 0.83704 20.2162C0.663756 20.3895 0.566406 20.6245 0.566406 20.8696L0.566406 23.0766C0.566406 23.1979 0.590306 23.3181 0.636742 23.4302C0.683177 23.5423 0.751238 23.6441 0.83704 23.7299C0.922841 23.8157 1.0247 23.8838 1.13681 23.9302C1.24891 23.9767 1.36906 24.0006 1.49041 24.0006H8.51041C8.63175 24.0006 8.7519 23.9767 8.86401 23.9302C8.97611 23.8838 9.07797 23.8157 9.16377 23.7299C9.24957 23.6441 9.31764 23.5423 9.36407 23.4302C9.41051 23.3181 9.43441 23.1979 9.43441 23.0766V20.8696C9.43441 20.6245 9.33706 20.3895 9.16377 20.2162C8.99049 20.0429 8.75547 19.9456 8.51041 19.9456H7.58741V10.1456C7.58794 9.90068 7.49123 9.66559 7.31854 9.49196C7.14585 9.31833 6.91129 9.22036 6.66641 9.21956H1.49041C1.24535 9.21956 1.01032 9.31691 0.83704 9.4902C0.663756 9.66348 0.566406 9.8985 0.566406 10.1436L0.566406 12.3516C0.566406 12.5966 0.663756 12.8316 0.83704 13.0049C1.01032 13.1782 1.24535 13.2756 1.49041 13.2756H2.41441V19.9456H1.49041ZM5.00041 0.351562C4.1183 0.351563 3.27232 0.70198 2.64857 1.32573C2.02482 1.94947 1.67441 2.79545 1.67441 3.67756C1.67441 4.55967 2.02482 5.40565 2.64857 6.0294C3.27232 6.65315 4.1183 7.00356 5.00041 7.00356C5.88252 7.00356 6.7285 6.65315 7.35224 6.0294C7.97599 5.40565 8.32641 4.55967 8.32641 3.67756C8.32641 2.79545 7.97599 1.94947 7.35224 1.32573C6.7285 0.70198 5.88252 0.351562 5.00041 0.351562Z" fill="#2B9465"/>
</svg>
