<svg width="30" height="23" viewBox="0 0 30 23" fill="none" xmlns="http://www.w3.org/2000/svg">
<path d="M0 23H1.05V0H0V23ZM1.5735 22.9831H2.109V0H1.5735V22.9831ZM3.1635 22.9831H3.6825V0H3.1635V22.9831ZM5.7915 22.9831H6.3105V0H5.793L5.7915 22.9831ZM7.9005 22.9831H8.94V0H7.902L7.9005 22.9831ZM10.5285 22.9831H11.0475V0H10.53L10.5285 22.9831ZM11.5785 22.9831H12.0975V0H11.5845L11.5785 22.9831ZM12.6285 22.9831H13.1475V0H12.639L12.6285 22.9831ZM14.7285 22.9831H15.7785V0H14.7285V22.9831ZM17.3565 22.9831H18.4065V0H17.3565V22.9831ZM19.4655 22.9831H20.5155V0H19.4655V22.9831ZM21.5745 22.9831H22.6245V0H21.5745V22.9831ZM23.148 22.9831H24.198V0H23.148V22.9831ZM25.7925 22.9831H27.366V0H25.8L25.7925 22.9831ZM27.8925 22.9831H28.428V0H27.8925V22.9831ZM28.9425 23H30V0H28.95L28.9425 23Z" fill="white"/>
</svg>
