<svg width="19" height="21" viewBox="0 0 19 21" fill="none" xmlns="http://www.w3.org/2000/svg">
<path d="M18.5443 17.294L14.883 13.4C14.801 13.3131 14.7036 13.2442 14.5965 13.1974C14.4894 13.1505 14.3747 13.1266 14.2589 13.127H13.6601C14.7102 11.7001 15.2792 9.93921 15.2759 8.127C15.2763 7.0598 15.079 6.00299 14.6954 5.01693C14.3117 4.03087 13.7492 3.13489 13.0399 2.38017C12.3307 1.62546 11.4886 1.0268 10.5618 0.618403C9.63496 0.210005 8.6416 -0.00013119 7.63844 2.46268e-07C6.63528 -0.000262513 5.64189 0.209743 4.71504 0.618019C3.78819 1.0263 2.94604 1.62484 2.2367 2.37946C1.52735 3.13409 0.964719 4.02999 0.580939 5.016C0.197159 6.00201 -0.000246762 7.0588 2.31491e-07 8.126C-0.000123271 9.19311 0.197373 10.2498 0.581209 11.2357C0.965044 12.2216 1.5277 13.1174 2.23703 13.8719C2.94636 14.6264 3.78847 15.2249 4.71526 15.6331C5.64205 16.0413 6.63536 16.2513 7.63844 16.251C9.34191 16.2545 10.9971 15.6491 12.3384 14.532V15.169C12.3381 15.2922 12.3606 15.4142 12.4046 15.5282C12.4486 15.6421 12.5134 15.7457 12.5951 15.833L16.2564 19.728C16.3379 19.8152 16.4349 19.8844 16.5417 19.9316C16.6485 19.9788 16.763 20.0031 16.8786 20.0031C16.9943 20.0031 17.1088 19.9788 17.2156 19.9316C17.3224 19.8844 17.4193 19.8152 17.5009 19.728L18.5406 18.622C18.7059 18.446 18.7991 18.2076 18.7998 17.9588C18.8005 17.71 18.7087 17.471 18.5443 17.294V17.294ZM7.63844 13.126C6.39192 13.126 5.19646 12.5992 4.31504 11.6615C3.43362 10.7239 2.93844 9.45208 2.93844 8.126C2.93844 6.79992 3.43362 5.52815 4.31504 4.59047C5.19646 3.65279 6.39192 3.126 7.63844 3.126C8.25565 3.126 8.86682 3.25533 9.43705 3.5066C10.0073 3.75788 10.5254 4.12617 10.9618 4.59047C11.3983 5.05476 11.7445 5.60596 11.9807 6.21258C12.2169 6.81921 12.3384 7.46939 12.3384 8.126C12.3384 9.45208 11.8433 10.7239 10.9618 11.6615C10.0804 12.5992 8.88496 13.126 7.63844 13.126V13.126Z" fill="white"/>
</svg>
